<svg xmlns="http://www.w3.org/2000/svg" width="27" height="29" viewBox="0 0 27 29">
    <g fill="#767A89" fill-rule="nonzero">
        <path d="M3.02 29h20.96c1.67 0 3.02-1.312 3.02-2.935V5.696c0-1.622-1.35-2.934-3.02-2.934h-3.02V.69c0-.38-.32-.69-.71-.69-.39 0-.71.31-.71.69v2.072H7.46V.69c0-.38-.32-.69-.71-.69-.39 0-.71.31-.71.69v2.072H3.02C1.35 2.762 0 4.074 0 5.696v20.37C0 27.687 1.35 29 3.02 29zM1.42 5.696c0-.863.71-1.553 1.599-1.553h3.02v1.726c0 .38.32.69.71.69.39 0 .71-.31.71-.69V4.143h12.08v1.726c0 .38.32.69.71.69.39 0 .71-.31.71-.69V4.143h3.02c.888 0 1.599.69 1.599 1.553v2.59H1.42v-2.59zm0 3.97H25.58v16.4c0 .863-.71 1.553-1.599 1.553H3.02c-.888 0-1.599-.69-1.599-1.554V9.667z"/>
        <ellipse cx="13.5" cy="13.292" rx="1" ry="1"/>
        <ellipse cx="13.5" cy="16.744" rx="1" ry="1"/>
        <ellipse cx="13.5" cy="20.196" rx="1" ry="1"/>
        <ellipse cx="13.5" cy="23.649" rx="1" ry="1"/>
        <ellipse cx="17.763" cy="13.292" rx="1" ry="1"/>
        <ellipse cx="17.763" cy="16.744" rx="1" ry="1"/>
        <ellipse cx="17.763" cy="20.196" rx="1" ry="1"/>
        <ellipse cx="17.763" cy="23.649" rx="1" ry="1"/>
        <ellipse cx="22.026" cy="13.292" rx="1" ry="1"/>
        <ellipse cx="22.026" cy="16.744" rx="1" ry="1"/>
        <ellipse cx="22.026" cy="20.196" rx="1" ry="1"/>
        <ellipse cx="22.026" cy="23.649" rx="1" ry="1"/>
        <ellipse cx="4.974" cy="13.292" rx="1" ry="1"/>
        <ellipse cx="4.974" cy="16.744" rx="1" ry="1"/>
        <ellipse cx="4.974" cy="20.196" rx="1" ry="1"/>
        <ellipse cx="4.974" cy="23.649" rx="1" ry="1"/>
        <ellipse cx="9.237" cy="13.292" rx="1" ry="1"/>
        <ellipse cx="9.237" cy="16.744" rx="1" ry="1"/>
        <ellipse cx="9.237" cy="20.196" rx="1" ry="1"/>
        <ellipse cx="9.237" cy="23.649" rx="1" ry="1"/>
    </g>
</svg>
